Seeding Time 24/7

Don't Forget To Say Thanks If You Like My Post



-=Media Info=-

Format : AVI
Format/Info : Audio Video Interleave
File size : 408 MiB
Duration : 31mn 36s
Overall bit rate : 1 804 Kbps

Video
ID : 0
Format : MPEG-4 Visual
Format settings, BVOP : 1
Format settings, QPel : No
Format settings, GMC : No warppoints
Format settings, Matrix : Default (H.263)
Muxing mode : Packed bitstream
Codec ID : DX50
Codec ID/Hint : DivX 5
Duration : 31mn 36s
Bit rate : 1 672 Kbps
Width : 712 pixels
Height : 400 pixels
Display aspect ratio : 16:9
Frame rate : 25.000 fps
Color space : YUV
Chroma subsampling : 40
Bit depth : 8 bits
Scan type : Progressive
Compression mode : Lossy
Bits/(Pixel*Frame) : 0.235
Stream size : 378 MiB (93%)
Writing library : DivX 6.8.3-6.8.4 (UTC 2008-06-07)

Audio
ID : 1
Format : MPEG Audio
Format version : Version 1
Format profile : Layer 3
Codec ID : 55
Codec ID/Hint : MP3
Duration : 31mn 36s
Bit rate mode : Constant
Bit rate : 128 Kbps
Channel(s) : 2 channels
Sampling rate : 32.0 KHz
Compression mode : Lossy
Stream size : 28.9 MiB (7%)
Alignment : Split accross interleaves
Interleave, duration : 500 ms (12.50 video frames)
Interleave, preload duration : 750 ms

-=Screen=-
